<?xml version="1.0" encoding="UTF-8"?>
<svg width="53px" height="60px" viewBox="0 0 53 60" version="1.1" xmlns="http://www.w3.org/2000/svg" xmlns:xlink="http://www.w3.org/1999/xlink">
    <!-- Generator: Sketch 49.1 (51147) - http://www.bohemiancoding.com/sketch -->
    <title>Page 1 Copy 4</title>
    <desc>Created with Sketch.</desc>
    <defs>
        <polygon id="path-1" points="2.77945619e-05 0.00637623762 45.9563625 0.00637623762 45.9563625 55.8613861 2.77945619e-05 55.8613861"></polygon>
    </defs>
    <g id="Latest-versions" stroke="none" stroke-width="1" fill="none" fill-rule="evenodd">
        <g id="Descript_Home_page_Desktop_1600" transform="translate(-160.000000, -5032.000000)">
            <g id="Superpowers-for-Spee" transform="translate(0.000000, 4748.000000)">
                <g id="Multitrack-Transcription" transform="translate(160.000000, 284.000000)">
                    <g id="Page-1-Copy-4">
                        <g id="Group-3" transform="translate(7.000000, 0.132238)">
                            <mask id="mask-2" fill="white">
                                <use xlink:href="#path-1"></use>
                            </mask>
                            <g id="Clip-2"></g>
                            <path d="M29.9980036,25.9277782 L27.9673329,25.9277782 L27.9673329,28.5032238 C28.611194,28.3727881 29.2361547,28.2509465 29.8572242,28.1123327 C29.9162876,28.099303 29.990777,27.9807881 29.9918888,27.910095 C30.0021728,27.2565307 29.9980036,26.6028277 29.9980036,25.9277782 Z M20.0222574,49.9018772 C19.988765,49.5726693 20.0239251,49.2632832 19.9195565,49.011699 C19.508197,48.0188079 19.0550066,47.0429663 18.6093208,46.0643525 C18.5733269,45.9850653 18.4782695,45.877501 18.4092,45.8765307 C17.5932906,45.8633624 16.7769644,45.8680752 15.9546622,45.8680752 L15.9546622,49.9018772 L20.0222574,49.9018772 Z M6.44558671,53.9154416 L24.772626,53.9154416 C24.6747891,53.8299168 24.6286502,53.7854218 24.578342,53.7461941 C23.8251094,53.1577782 23.0759069,52.5639564 22.3130852,51.9881545 C22.1873148,51.8933426 22.0010912,51.8329069 21.8425233,51.8326297 C17.8961124,51.8243129 13.9495625,51.8209861 10.0031517,51.8308277 C9.28202175,51.8324911 8.58854743,51.9935604 7.95858369,52.371699 C7.3375142,52.7441545 6.81025136,53.2046297 6.44558671,53.9154416 Z M18.1098526,43.8846495 C18.0748314,43.387303 18.0128495,42.8845505 18.010626,42.3813822 C18.0075686,41.6809663 18.0239674,40.9783327 18.0816411,40.2806891 C18.1156894,39.8690059 18.1386199,39.853897 17.7185051,39.8444713 C16.7494477,39.8225703 15.7678828,39.8842535 14.8141124,39.7516 C12.1292967,39.3781743 10.1720036,37.9116396 8.88233595,35.5550653 C8.22332689,34.3507881 7.99165921,33.0302139 7.9769281,31.6745703 C7.95761088,29.8965703 7.97220302,28.1182931 7.97220302,26.3400158 L7.97220302,25.935402 L5.92179819,25.935402 L5.92179819,26.379105 C5.92179819,28.4921347 5.93333293,30.6054416 5.917629,32.7183327 C5.90748399,34.0641347 6.08606405,35.3755604 6.5555142,36.637501 C7.56126042,39.3415802 9.34594924,41.3746297 11.9072181,42.7144713 C13.1401849,43.3594416 14.4654296,43.7416 15.8472363,43.8724515 C16.5778163,43.9417584 17.320348,43.8846495 18.1098526,43.8846495 Z M17.9753269,21.8869069 C15.4401849,21.8869069 12.9049039,21.8867683 10.3697619,21.8869069 C9.90670453,21.8869069 9.90461994,21.8874614 9.90461994,22.3354614 C9.90392508,25.4528871 9.89989486,28.5704515 9.9068435,31.6878772 C9.9089281,32.6127089 10.0280278,33.5231248 10.4424447,34.3663129 C11.5493631,36.6187881 13.3375263,37.8514812 15.8766985,37.9271644 C16.6284024,37.9494812 17.382052,37.9126099 18.1336169,37.9389465 C18.4596471,37.9503129 18.5798586,37.8380356 18.6845051,37.5347485 C19.9363722,33.9054218 22.2640278,31.1945505 25.7016592,29.4510653 C25.9458344,29.3272832 26.0228254,29.1746693 26.0218526,28.9115802 C26.0130973,26.7177386 26.0105958,24.5240356 26.0235202,22.3301941 C26.0256048,21.9915604 25.9440278,21.8758178 25.5807529,21.8781743 C23.0457498,21.8945307 20.5104689,21.8869069 17.9753269,21.8869069 Z M10.3369644,5.77803564 C10.0221909,6.5046495 9.90753837,7.24942178 9.90642659,8.01013465 C9.90114562,11.8550059 9.90392508,15.6997386 9.9053148,19.5446099 C9.9053148,19.6793426 9.92143565,19.8142139 9.93074683,19.9614218 L25.9911396,19.9614218 C26.0003118,19.7981347 26.0158767,19.6516198 26.0160157,19.5049663 C26.0172665,16.1336 26.0239372,12.7622337 26.0117076,9.39072871 C26.0087891,8.59813465 26.0007287,7.79722376 25.8912181,7.0146099 C25.4940338,4.17607525 23.0532544,2.00718416 20.0585293,1.93066931 C18.7281426,1.89684752 17.3960882,1.91514455 16.0650066,1.92775842 C14.6786139,1.94106535 13.405623,2.32419406 12.3019009,3.18124356 C11.9648918,3.44294653 11.6635988,3.75025347 11.3375686,4.04425347 C11.9044387,4.51013465 12.046052,4.98266931 11.8052121,5.42387723 C11.5385233,5.91249109 11.1029825,6.02241188 10.3369644,5.77803564 Z M19.9469341,41.8510455 C19.8546562,48.3987485 25.4503964,54.3777188 32.8637619,53.8637386 C39.1595082,53.427105 44.3522272,47.8864317 43.9711637,41.2279762 C43.6198405,35.091402 38.3295625,29.5295208 31.2286079,29.9290059 C24.9759432,30.2806693 19.8977378,35.589303 19.9469341,41.8510455 Z M4.00994924,55.8457782 C3.97868036,54.515501 4.39212447,53.3809465 5.13854743,52.3649069 C6.08800967,51.0724713 7.3819855,50.3105109 8.94973776,50.0063921 C9.24185861,49.949699 9.54454139,49.9264119 9.84249909,49.9244713 C11.0931154,49.9156 12.3438707,49.9205901 13.594626,49.9205901 L13.9902816,49.9205901 C14.0013994,49.7847485 14.0162695,49.6846693 14.0164085,49.5847287 C14.0180761,48.337204 14.0068193,47.0895406 14.0253027,45.8424317 C14.0297498,45.5523129 13.8966139,45.4559762 13.6606381,45.401501 C11.841623,44.9813624 10.2310671,44.1294416 8.79283746,42.9674416 C7.18895227,41.6718178 5.96335106,40.0669465 5.12673474,38.1797188 C4.62726647,37.0529267 4.23202779,35.8880158 4.15489789,34.6496396 C4.077629,33.4082139 4.03426949,32.1637386 4.01703686,30.9199564 C3.99438429,29.269204 4.01147795,27.6177584 4.01147795,25.9359564 L1.90423323,25.9359564 L1.90423323,27.8901347 L2.77945619e-05,27.8901347 L2.77945619e-05,22.0147089 L1.89172568,22.0147089 C1.89172568,22.5877386 1.89714562,23.1505109 1.88894622,23.7131446 C1.88602779,23.9167683 1.95203988,24.0032634 2.16772568,24.0025703 C4.05497644,23.9964713 5.94222719,23.997996 7.82947795,23.9959168 C7.86213656,23.9959168 7.89465619,23.9812238 7.97220302,23.9622337 L7.97220302,23.5310059 C7.97220302,18.4255802 7.95385861,13.3201545 7.97901269,8.21486733 C7.99443867,5.04989703 9.36679517,2.61777822 12.1295746,1.02150099 C13.0501305,0.48950099 14.0518465,0.123144554 15.1304145,0.0941742574 C16.8639613,0.0474613861 18.6026502,-0.0405584158 20.3324447,0.0373425743 C24.0391275,0.204233663 27.1057015,2.89001584 27.7409462,6.46098614 C27.8550429,7.10221386 27.9380097,7.7585505 27.9399553,8.40837228 C27.9562151,13.4443525 27.9489885,18.4804713 27.9489885,23.5164515 L27.9489885,23.999798 L29.0846743,23.999798 C30.5894719,23.999798 32.0944085,23.9876 33.5989281,24.0086693 C33.962481,24.0136594 34.0557317,23.8998574 34.0368314,23.5565109 C34.0088979,23.0515406 34.0296048,22.543798 34.0296048,22.0137386 L35.9224145,22.0137386 L35.9224145,27.8916594 L34.0429462,27.8916594 L34.0429462,25.9294416 L31.938064,25.9294416 L31.938064,27.925204 C32.520777,27.9777386 33.0930671,28.0304119 33.665635,28.0804515 C34.9925474,28.1964713 36.2549764,28.5678178 37.468765,29.0924713 C39.1789644,29.8315604 40.7004387,30.8559168 41.9956653,32.2029663 C43.8241305,34.1041941 45.0274961,36.3408673 45.6017317,38.9103525 C45.8581366,40.0576594 46.0004447,41.2263129 45.9441607,42.399402 C45.8003239,45.3901347 44.8418284,48.0983723 42.9809825,50.4645109 C40.8634538,53.1572238 38.1013692,54.8362535 34.759629,55.5573228 C33.4128435,55.8478574 32.0363178,55.8758574 30.660765,55.8567287 C29.8387408,55.8452238 29.0165776,55.8461941 28.1942755,55.8461941 C20.2963118,55.845501 12.398487,55.8457782 4.50052326,55.8457782 L4.00994924,55.8457782 Z" id="Fill-1" fill="#1871FF" mask="url(#mask-2)"></path>
                            <path d="M19.6011733,41.8114364 C19.5501254,35.2867517 24.8195909,29.7553212 31.3075715,29.3888989 C38.675623,28.9726479 44.164998,34.7679544 44.5295431,41.1622177 C44.9249477,48.0999759 39.5368032,53.8733289 33.0041196,54.3281432 C25.3118998,54.8636945 19.5054225,48.6337941 19.6011733,41.8114364" id="Fill-4-Copy" fill="#1871FF" mask="url(#mask-2)"></path>
                            <g id="Group-28" mask="url(#mask-2)" fill="#FFFFFF">
                                <g transform="translate(32.000000, 41.867762) rotate(90.000000) translate(-32.000000, -41.867762) translate(23.000000, 32.867762)">
                                    <rect id="Rectangle-25" x="0" y="8" width="18" height="2" rx="1"></rect>
                                    <rect id="Rectangle-25-Copy" x="4" y="4" width="10" height="2" rx="1"></rect>
                                    <rect id="Rectangle-25-Copy-3" x="7" y="0" width="4" height="2" rx="1"></rect>
                                    <rect id="Rectangle-25-Copy-4" x="7" y="16" width="4" height="2" rx="1"></rect>
                                    <rect id="Rectangle-25-Copy-2" x="4" y="12" width="10" height="2" rx="1"></rect>
                                </g>
                            </g>
                        </g>
                        <path d="M50.1193511,57.2425272 C50.1193511,57.1880479 50.1192975,57.1404052 50.1193511,57.0927625 C50.1196187,56.376146 50.1166743,55.6595828 50.1211177,54.9430197 C50.1256146,54.2127833 50.870921,53.7748658 51.5068031,54.1327735 C51.8196583,54.3088698 51.9686982,54.5953669 51.9692871,54.9518325 C51.971482,56.2914894 51.9700901,57.6311997 51.9700366,58.97091 L51.9705207,59.0850495 L0.847816874,59.0850495 C0.845407824,59.0487299 0.841178604,59.0145468 0.841178604,58.9803637 C0.840803862,57.6317338 0.839679639,56.2831038 0.841392741,54.9345273 C0.84198162,54.4560708 1.15151774,54.0951187 1.62272786,54.0129724 C2.15860759,53.9195564 2.68131784,54.3427859 2.68806318,54.8922791 C2.69705696,55.6176551 2.6905793,56.3432447 2.6907399,57.0687275 C2.6907399,57.1218181 2.6907399,57.1749622 2.6907399,57.2425272 L50.1193511,57.2425272 Z" id="Fill-1" fill="#1871FF"></path>
                        <path d="M23.955864,16.1449941 C23.4103958,16.146796 23.020994,16.532004 23.0161299,17.0746772 C23.0114048,17.5989149 23.4463897,18.0574495 23.9548912,18.0642416 C24.4337915,18.0707564 24.9602205,17.5710535 24.9333988,17.090202 C24.9049094,16.5752515 24.5245408,16.1224 23.955864,16.1449941 M23.9516949,10.0430733 C24.4779849,10.0461228 24.9359003,9.61032079 24.9395136,9.10285545 C24.9429879,8.6233901 24.4403233,8.12271683 23.9586435,8.12562772 C23.4634834,8.12867723 23.026136,8.57030099 23.0169637,9.0763802 C23.0068187,9.6413703 23.3917734,10.0396079 23.9516949,10.0430733 M29.9579607,14.0472119 C30.477858,14.0491525 30.9108973,13.6299842 30.9186798,13.1173901 C30.9267402,12.578598 30.503568,12.1440436 29.9690785,12.142103 C29.4469577,12.1401624 29.016281,12.5572515 29.0084985,13.0717861 C29.000577,13.6104396 29.4237492,14.0452713 29.9579607,14.0472119 M31.0224924,9.11851881 C31.0244381,9.6643802 31.4074471,10.0414099 31.9612538,10.0429347 C32.4868489,10.0443208 32.9625529,9.59451881 32.9593565,9.0993901 C32.9564381,8.63087525 32.4365408,8.12368713 31.9616707,8.12604356 C31.4523353,8.12853861 31.0205468,8.58485545 31.0224924,9.11851881 M18.8986435,13.1144792 C18.9032296,12.5564198 18.5040997,12.1509743 17.9622447,12.1396079 C17.4181662,12.1282416 16.9788731,12.5991129 16.974148,13.0920238 C16.9697009,13.5612317 17.3924562,14.0569149 17.9568248,14.0492911 C18.4861722,14.0420832 18.8944743,13.6452317 18.8986435,13.1144792 M21.0164502,13.082598 C21.0139486,13.636499 21.415997,14.0490139 21.9567402,14.0472119 C22.4849758,14.0455485 22.9309396,13.6054495 22.9274653,13.0893901 C22.923852,12.5731921 22.4755257,12.1400238 21.9464562,12.142103 C21.4212779,12.1440436 21.0188127,12.5510139 21.0164502,13.082598 M25.9617976,12.142103 C25.4581601,12.1369743 25.0231752,12.4908554 24.9896828,13.1021426 C24.9614713,13.6170931 25.4455136,14.0516475 25.9761118,14.0472119 C26.5129637,14.0426376 26.9005589,13.6492515 26.9043112,13.1047762 C26.9082024,12.542697 26.5151873,12.1412713 25.9617976,12.142103 M19.0024562,17.0857663 C18.9967583,17.5893505 19.3539184,18.0225188 19.9648429,18.0555089 C20.4818218,18.0835089 20.9169456,17.6014099 20.9126375,17.0720436 C20.9081903,16.5364396 20.5139245,16.1499842 19.9680393,16.1459644 C19.4040876,16.1420832 19.0019003,16.5335287 19.0024562,17.0857663 M28.9044079,17.0900634 C28.9055196,16.5260436 28.5200091,16.1430535 27.9539728,16.1458257 C27.4271269,16.1484594 27.0047885,16.5550139 26.9936707,17.0702416 C26.9829698,17.5714693 27.442136,18.0481624 27.9495257,18.0627168 C28.4503837,18.0769941 28.903435,17.6155485 28.9044079,17.0900634 M31.9491631,16.1452713 C31.3888248,16.1512317 31.0166556,16.5419842 31.0229094,17.1175089 C31.0283293,17.6205386 31.4819366,18.0721426 31.9736224,18.0638257 C32.4555801,18.0557861 32.9679728,17.5433307 32.9593565,17.0778653 C32.9501843,16.5760832 32.4772598,16.1395881 31.9491631,16.1452713 M28.9044079,9.10521188 C28.9049637,8.57889505 28.4605287,8.11980594 27.9559184,8.12548911 C27.4539486,8.13117228 26.9876949,8.60897426 26.9936707,9.11172673 C26.9996465,9.62695446 27.4204562,10.0375287 27.9471631,10.0426574 C28.5155619,10.048202 28.903852,9.66770693 28.9044079,9.10521188 M20.9126375,9.10964752 C20.9141662,8.58152871 20.4708429,8.1253505 19.9567825,8.12618218 C19.4417492,8.12715248 19.0002326,8.58277624 19.0024562,9.11103366 C19.0046798,9.64871683 19.3958882,10.0372515 19.9409396,10.0433505 C20.5055861,10.0495881 20.9109698,9.66008317 20.9126375,9.10964752 M29.9626858,4.17055842 C29.425139,4.17083564 29.0143353,4.56533069 29.0084985,5.08707327 C29.0023837,5.61699406 29.4283353,6.06596436 29.9471208,6.07663762 C30.4617372,6.08731089 30.9131208,5.64277624 30.9186798,5.11964752 C30.9243776,4.57780594 30.5139909,4.1704198 29.9626858,4.17055842 M25.9818097,4.17069703 C25.4462085,4.16792475 24.9939909,4.58778614 24.9817613,5.09913267 C24.9700876,5.59176634 25.4464864,6.07109307 25.9531813,6.07663762 C26.481139,6.08245941 26.9048671,5.65081584 26.9038943,5.10814257 C26.9029215,4.55701386 26.5256103,4.17346931 25.9818097,4.17069703 M21.0165891,5.11881584 C21.0178399,5.63307327 21.4390665,6.06845941 21.9432598,6.07677624 C22.4591269,6.08523168 22.9177372,5.64055842 22.9274653,5.12228119 C22.9369154,4.60899406 22.4913686,4.17069703 21.9599366,4.17083564 C21.3900091,4.17083564 21.0151994,4.54758812 21.0165891,5.11881584 M17.337006,5.91030099 C18.1030242,6.15467723 18.538565,6.04461782 18.8052538,5.55600396 C19.0459547,5.11493465 18.9043414,4.6424 18.3374713,4.17651881 C18.6636405,3.88251881 18.9647946,3.57521188 19.3018036,3.31350891 C20.4056647,2.45645941 21.6785166,2.07319208 23.0650483,2.06002376 C24.3961299,2.04727129 25.7281843,2.02911287 27.058571,2.06293465 C30.0532961,2.13931089 32.4940755,4.30834059 32.8912598,7.14687525 C33.0007704,7.92948911 33.0088308,8.7304 33.0117492,9.52299406 C33.0239789,12.8943604 33.0173082,16.2658653 33.0159184,19.6372317 C33.0157795,19.7837465 33.0003535,19.9304 32.9911813,20.0935485 L16.9307885,20.0935485 C16.9213384,19.9464792 16.9053565,19.8116079 16.9053565,19.6767366 C16.9038278,15.832004 16.9011873,11.9871327 16.9064683,8.1424 C16.9075801,7.38168713 17.0222326,6.63691485 17.337006,5.91030099" id="Fill-6" fill="#FFFFFF"></path>
                        <path d="M26.9266858,26.1174851 C26.966432,25.0881386 26.1289819,24.1911683 25.1364381,24.1145149 C23.9749033,24.0246931 23.0323897,24.9091881 22.990281,26.0093663 C22.9495619,27.0703168 23.802716,28.0225941 24.9064381,28.0428317 C25.9768066,28.0625149 26.884577,27.2783762 26.9266858,26.1174851 M24.9753686,22.0190891 C27.5105106,22.0190891 30.0456526,22.0268515 32.5807946,22.010495 C32.9440695,22.0081386 33.0256465,22.1237426 33.0235619,22.4625149 C33.0104985,24.6562178 33.013139,26.8500594 33.0217553,29.0437624 C33.0228671,29.3069901 32.9458761,29.4594653 32.7017009,29.5833861 C29.2639305,31.3267327 26.9362749,34.0377426 25.6845468,37.6669307 C25.5799003,37.9703564 25.4595498,38.082495 25.1336586,38.0711287 C24.3819547,38.0449307 23.6284441,38.0816634 22.8766012,38.0593465 C20.337429,37.9836634 18.5492659,36.7511089 17.4423474,34.4986337 C17.0280695,33.6554455 16.9089698,32.7450297 16.9068852,31.820198 C16.8999366,28.7026337 16.9039668,25.5852079 16.9045227,22.4676436 C16.9046616,22.0197822 16.9067462,22.0192277 17.3698036,22.0192277 C19.9049456,22.0190891 22.4402266,22.0190891 24.9753686,22.0190891" id="Fill-8" fill="#FFFFFF"></path>
                        <path d="M25.1098526,44.0169426 C24.320348,44.0169426 23.5778163,44.0739129 22.8472363,44.0047446 C21.4654296,43.8738931 20.1401849,43.4917347 18.9072181,42.8467644 C16.3459492,41.5069228 14.5612604,39.4738733 13.5555142,36.7697941 C13.086064,35.5077149 12.907484,34.1962891 12.917629,32.8504871 C12.9333329,30.737596 12.9217982,28.6244277 12.9217982,26.5112594 L12.9217982,26.067695 L14.972203,26.067695 L14.972203,26.4723089 C14.972203,28.2505861 14.9576109,30.0288634 14.9769281,31.8068634 C14.9916592,33.1623683 15.2233269,34.4830812 15.882336,35.6872198 C17.1720036,38.0437941 19.1292967,39.5103287 21.8141124,39.8838931 C22.7678828,40.0165465 23.7494477,39.9547248 24.7185051,39.9767644 C25.1386199,39.9861901 25.1156894,40.0011604 25.0816411,40.4129822 C25.0239674,41.1104871 25.0075686,41.8132594 25.010626,42.5135366 C25.0128495,43.016705 25.0748314,43.519596 25.1098526,44.0169426" id="Fill-10" fill="#FFFFFF"></path>
                        <path d="M13.4455728,54.0476238 C13.8102375,53.3368119 14.3375003,52.8764752 14.9585698,52.5038812 C15.5885335,52.1258812 16.2820079,51.9648119 17.0031378,51.9630099 C20.9495486,51.9533069 24.8960985,51.956495 28.8426483,51.9649505 C29.0010773,51.9652277 29.1873009,52.0255248 29.3130713,52.1204752 C30.076032,52.6961386 30.8250955,53.2899604 31.5783281,53.8783762 C31.6286363,53.9177426 31.6747752,53.9622376 31.7726121,54.0476238 L13.4455728,54.0476238 Z" id="Fill-12" fill="#FFFFFF"></path>
                        <path d="M27.0222296,50.0340594 L22.9546344,50.0340594 L22.9546344,46.0002574 C23.7769366,46.0002574 24.5932628,45.9955446 25.4093112,46.0087129 C25.4783807,46.0098218 25.5732991,46.1172475 25.6092931,46.1965347 C26.0549789,47.1751485 26.5081692,48.1509901 26.9196677,49.1438812 C27.0240363,49.395604 26.9887372,49.7048515 27.0222296,50.0340594" id="Fill-14" fill="#FFFFFF"></path>
                        <path d="M36.9980036,26.0600158 C36.9980036,26.7350653 37.0021728,27.3887683 36.9918888,28.0423327 C36.990777,28.1130257 36.9162876,28.2315406 36.8572242,28.2445703 C36.2361547,28.3831842 35.611194,28.5050257 34.9673329,28.6354614 L34.9673329,26.0600158 L36.9980036,26.0600158 Z" id="Fill-16" fill="#FFFFFF"></path>
                        <path d="M21.016603,5.1188297 C21.0152133,4.54760198 21.390023,4.1708495 21.9599505,4.1708495 C22.4913825,4.17071089 22.9369293,4.60900792 22.9274792,5.12229505 C22.9177511,5.64057228 22.4591408,6.08524554 21.9431347,6.0767901 C21.4390804,6.06847327 21.0178538,5.63308713 21.016603,5.1188297" id="Fill-18" fill="#1871FF"></path>
                        <path d="M25.9818236,4.17066931 C26.5256242,4.1735802 26.9029353,4.55712475 26.9039082,5.10825347 C26.904881,5.65078812 26.4811529,6.08243168 25.9531952,6.0766099 C25.4463613,6.07106535 24.9701015,5.59173861 24.9817752,5.09910495 C24.9940048,4.58775842 25.4462224,4.16789703 25.9818236,4.17066931" id="Fill-20" fill="#1871FF"></path>
                        <path d="M29.9626441,4.1706 C30.5140882,4.17046139 30.924336,4.57784752 30.9186381,5.11968911 C30.9130792,5.64281782 30.4618344,6.08735248 29.9472181,6.07667921 C29.4282937,6.06586733 29.002481,5.61703564 29.0085958,5.08711485 C29.0144326,4.56537228 29.4252363,4.17073861 29.9626441,4.1706" id="Fill-22" fill="#1871FF"></path>
                        <path d="M20.9126514,9.10959208 C20.9109837,9.66002772 20.5056,10.0495327 19.9409535,10.043295 C19.3959021,10.0373347 19.0046937,9.6488 19.0024701,9.11097822 C19.0002465,8.58272079 19.4417631,8.12709703 19.9567964,8.12626535 C20.4708568,8.12529505 20.9141801,8.58147327 20.9126514,9.10959208" id="Fill-24" fill="#1871FF"></path>
                        <path d="M28.9044634,9.10526733 C28.9039076,9.66776238 28.5154785,10.0481188 27.9470798,10.0427129 C27.4203728,10.0375842 26.9997021,9.62687129 26.9937263,9.11178218 C26.9877505,8.60889109 27.4538653,8.13108911 27.955974,8.12540594 C28.4605843,8.11972277 28.9050193,8.5789505 28.9044634,9.10526733" id="Fill-26" fill="#1871FF"></path>
                        <path d="M31.9491076,16.1452713 C32.4773432,16.1395881 32.9501287,16.5760832 32.9594399,17.0778653 C32.9679172,17.5433307 32.4556634,18.0557861 31.9737057,18.0638257 C31.4820199,18.0721426 31.0282737,17.6205386 31.0228538,17.1175089 C31.0166,16.5419842 31.3889082,16.1512317 31.9491076,16.1452713" id="Fill-28" fill="#1871FF"></path>
                        <path d="M28.9044634,17.0900495 C28.9033517,17.6156733 28.4503003,18.0769802 27.9495813,18.062703 C27.4421915,18.0481485 26.9830254,17.5714554 26.9937263,17.0702277 C27.0048441,16.555 27.4270435,16.1484455 27.9538894,16.1458119 C28.5199257,16.1430396 28.9055752,16.5260297 28.9044634,17.0900495" id="Fill-30" fill="#1871FF"></path>
                        <path d="M19.0025118,17.0857802 C19.0018169,16.5335426 19.4040042,16.1419584 19.9680949,16.1459782 C20.5138411,16.149998 20.9082459,16.5364535 20.9125541,17.0720574 C20.9168622,17.6014238 20.4818773,18.0835228 19.9648985,18.0555228 C19.353974,18.0225327 18.9968139,17.5893644 19.0025118,17.0857802" id="Fill-32" fill="#1871FF"></path>
                        <path d="M25.961742,12.1421168 C26.5151317,12.1412851 26.9082858,12.5427109 26.9042556,13.1047901 C26.9006423,13.6492653 26.5130471,14.0426515 25.9761952,14.0472257 C25.445458,14.0516614 24.9615547,13.6171069 24.9897662,13.1021564 C25.0231196,12.4908693 25.4581045,12.1369881 25.961742,12.1421168" id="Fill-34" fill="#1871FF"></path>
                        <path d="M21.0163946,13.0825564 C21.0187571,12.5511109 21.4212224,12.144002 21.9464006,12.1420614 C22.4754701,12.1399822 22.9239353,12.5731505 22.9274097,13.0893485 C22.930884,13.6054079 22.4849202,14.0456455 21.9568236,14.0471703 C21.4159414,14.0489723 21.0138931,13.636596 21.0163946,13.0825564" id="Fill-36" fill="#1871FF"></path>
                        <path d="M18.8986991,13.1145069 C18.8945299,13.6452594 18.4862278,14.0421109 17.9568804,14.0493188 C17.3925118,14.0569426 16.9697565,13.5612594 16.9740647,13.0919129 C16.9789287,12.5991406 17.4180828,12.1282693 17.9623003,12.1396356 C18.5040163,12.151002 18.9031462,12.5564475 18.8986991,13.1145069" id="Fill-38" fill="#1871FF"></path>
                        <path d="M31.0224369,9.11853267 C31.0204912,8.58486931 31.4524187,8.12855248 31.9617541,8.12605743 C32.4366242,8.12370099 32.9563825,8.6307505 32.9594399,9.09940396 C32.9624973,9.59453267 32.4867934,10.0443347 31.9613372,10.0429485 C31.4075305,10.0414238 31.0245215,9.66439406 31.0224369,9.11853267" id="Fill-40" fill="#1871FF"></path>
                        <path d="M29.9580302,14.0472396 C29.4236798,14.045299 29.0005076,13.6104673 29.008568,13.0718139 C29.0163505,12.5571406 29.4468882,12.1401901 29.9690091,12.1421307 C30.5036375,12.1440713 30.9268097,12.5786257 30.9186103,13.1174178 C30.9108278,13.6300119 30.4777885,14.0491802 29.9580302,14.0472396" id="Fill-42" fill="#1871FF"></path>
                        <path d="M23.9516532,10.043004 C23.3918707,10.0395386 23.006777,9.6414396 23.0169221,9.0764495 C23.0260943,8.5703703 23.4634417,8.12860792 23.9586018,8.12555842 C24.4404205,8.12264752 24.9429462,8.62332079 24.9394719,9.10278614 C24.9358586,9.6103901 24.4779432,10.0461921 23.9516532,10.043004" id="Fill-44" fill="#1871FF"></path>
                        <path d="M23.955864,16.1449941 C24.5245408,16.1224 24.9049094,16.5752515 24.9333988,17.090202 C24.9602205,17.5710535 24.4337915,18.0707564 23.9548912,18.0642416 C23.4463897,18.0574495 23.0114048,17.5989149 23.0161299,17.0746772 C23.020994,16.532004 23.4103958,16.146796 23.955864,16.1449941" id="Fill-46" fill="#1871FF"></path>
                        <path d="M26.9266858,26.1174851 C26.884577,27.2783762 25.9768066,28.0625149 24.9064381,28.0428317 C23.802716,28.0225941 22.9495619,27.0703168 22.990281,26.0093663 C23.0323897,24.9091881 23.9749033,24.0246931 25.1364381,24.1145149 C26.1289819,24.1911683 26.966432,25.0881386 26.9266858,26.1174851" id="Fill-48" fill="#1871FF"></path>
                    </g>
                </g>
            </g>
        </g>
    </g>
</svg>